# xmcd
# 
# Track frame offsets:
#     150
#     22098
#     51832
#     73780
# 
# Disc length: 1377
# 
# Revision: 0
# Processed by: cddbd v1.5.2PL0 Copyright (c) Steve Scherf et al.
# Submitted via: fre:ac v1.0.17
# 
DISCID=35055f04
DTITLE=いきものがたり - ラブとピース！
DYEAR=0
DGENRE=
TTITLE0=ラブとピース！
TTITLE1=夢題～遠くへ～
TTITLE2=ラブとピース！ -instrumental-
TTITLE3=夢題～遠くへ～ -instrumental-
EXTD=
EXTT0=
EXTT1=
EXTT2=
EXTT3=
PLAYORDER=
